<svg width="288" height="99" viewBox="0 0 288 99" fill="none" xmlns="http://www.w3.org/2000/svg">
<path d="M30.288 32.768V42.224H46.224V52.736H1.776V42.224H17.712V32.768H3.792V22.688H44.208V32.768H30.288ZM92.592 35.168C93.008 38.944 93.984 43.008 95.52 47.36C93.344 49.024 90.96 50.544 88.368 51.92C85.776 53.264 82.528 54.72 78.624 56.288L71.664 51.536C71.728 48.976 71.76 44.768 71.76 38.912C71.76 30.88 71.68 24.608 71.52 20.096L83.232 19.808C83.104 25.184 83.04 29.504 83.04 32.768C83.04 34.752 83.072 37.632 83.136 41.408C84.64 40.768 86.144 39.968 87.648 39.008C89.184 38.048 90.832 36.768 92.592 35.168ZM68.976 21.632C69.072 23.232 69.168 25.424 69.264 28.208C69.392 30.992 69.456 33.344 69.456 35.264C69.456 36.288 69.44 36.992 69.408 37.376C69.152 42.496 67.776 46.736 65.28 50.096C62.816 53.424 58.944 55.76 53.664 57.104C52.704 55.024 51.6 52.992 50.352 51.008C49.136 48.992 47.824 47.28 46.416 45.872C50.416 45.584 53.232 44.688 54.864 43.184C56.528 41.648 57.36 39.552 57.36 36.896C57.36 32.896 57.248 29.824 57.024 27.68C56.832 25.504 56.496 23.584 56.016 21.92L68.976 21.632ZM100.224 33.44V22.016H139.776V33.44H100.224ZM97.92 53.072V41.36H142.08V53.072H97.92ZM189.072 43.952H147.456V32.72H189.072V43.952ZM196.224 33.44V22.016H235.776V33.44H196.224ZM193.92 53.072V41.36H238.08V53.072H193.92ZM246.576 27.728H281.664V55.28H245.952C245.952 51.152 245.792 48.128 245.472 46.208C252.384 46.432 260.864 46.576 270.912 46.64V45.008H247.296V37.712H270.912V36.032H246.576V27.728Z" fill="#FFDF2B"/>
<path d="M175.847 70.16C175.335 71.824 174.823 73.488 174.311 75.152C173.799 76.7947 173.287 78.4373 172.775 80.08C172.284 81.7227 171.783 83.376 171.271 85.04C170.759 86.6827 170.247 88.336 169.735 90H154.471C154.065 88.6773 153.66 87.3547 153.255 86.032C152.849 84.7093 152.444 83.3867 152.039 82.064C151.633 80.7413 151.217 79.4187 150.791 78.096C150.385 76.7733 149.98 75.4507 149.575 74.128C149.169 72.8053 148.764 71.4827 148.359 70.16H160.103C160.231 70.9067 160.348 71.6533 160.455 72.4C160.583 73.1253 160.711 73.8613 160.839 74.608C160.967 75.3547 161.084 76.1013 161.191 76.848C161.319 77.5947 161.447 78.3413 161.575 79.088C161.703 79.8347 161.82 80.5813 161.927 81.328C162.055 82.0533 162.183 82.7893 162.311 83.536C162.332 83.6427 162.343 83.728 162.343 83.792C162.364 83.8347 162.385 83.856 162.407 83.856C162.428 83.856 162.439 83.8347 162.439 83.792C162.46 83.728 162.481 83.6427 162.503 83.536C162.631 82.7893 162.748 82.0533 162.855 81.328C162.983 80.5813 163.111 79.8347 163.239 79.088C163.367 78.3413 163.484 77.5947 163.591 76.848C163.719 76.1013 163.847 75.3547 163.975 74.608C164.103 73.8613 164.22 73.1253 164.327 72.4C164.455 71.6533 164.583 70.9067 164.711 70.16H175.847ZM188.954 90.96C187.632 90.96 186.352 90.864 185.114 90.672C183.877 90.48 182.725 90.192 181.658 89.808C180.592 89.4027 179.621 88.9013 178.746 88.304C177.872 87.7067 177.125 87.0133 176.506 86.224C175.888 85.4133 175.408 84.5067 175.066 83.504C174.725 82.48 174.554 81.3493 174.554 80.112C174.554 78.6613 174.789 77.36 175.258 76.208C175.749 75.0347 176.432 74.0107 177.306 73.136C178.202 72.2613 179.248 71.536 180.442 70.96C181.637 70.3627 182.949 69.9253 184.378 69.648C185.829 69.3493 187.354 69.2 188.954 69.2C190.96 69.2 192.826 69.4347 194.554 69.904C196.304 70.352 197.829 71.0347 199.13 71.952C200.453 72.848 201.488 73.9787 202.234 75.344C202.981 76.7093 203.354 78.2987 203.354 80.112C203.354 81.9253 202.981 83.5147 202.234 84.88C201.488 86.224 200.453 87.3547 199.13 88.272C197.829 89.168 196.304 89.84 194.554 90.288C192.826 90.736 190.96 90.96 188.954 90.96ZM188.986 82.48C190.309 82.48 191.248 82.224 191.802 81.712C192.357 81.2 192.634 80.6453 192.634 80.048C192.634 79.7707 192.57 79.4933 192.442 79.216C192.314 78.9387 192.112 78.6827 191.834 78.448C191.557 78.2133 191.184 78.032 190.714 77.904C190.245 77.7547 189.669 77.68 188.986 77.68C188.304 77.68 187.717 77.7547 187.226 77.904C186.757 78.032 186.373 78.2133 186.074 78.448C185.797 78.6827 185.594 78.9387 185.466 79.216C185.338 79.4933 185.274 79.7813 185.274 80.08C185.274 80.3787 185.338 80.6773 185.466 80.976C185.594 81.2533 185.808 81.5093 186.106 81.744C186.405 81.9573 186.789 82.1387 187.258 82.288C187.728 82.416 188.304 82.48 188.986 82.48ZM204.312 90C204.312 88.2933 204.312 86.5973 204.312 84.912C204.312 83.2053 204.312 81.5093 204.312 79.824C204.312 78.1173 204.312 76.4213 204.312 74.736C204.312 73.2853 204.312 71.8347 204.312 70.384C204.312 68.912 204.312 67.4507 204.312 66H215.384C215.384 66.896 215.384 67.792 215.384 68.688C215.384 69.5627 215.384 70.448 215.384 71.344C215.384 74.4373 215.384 77.5413 215.384 80.656C215.384 83.7707 215.384 86.8853 215.384 90H204.312ZM216.656 90V81.008H228.336V90H216.656ZM232.856 90C232.856 88.848 232.856 87.7067 232.856 86.576C232.856 85.424 232.856 84.2827 232.856 83.152C232.856 82.0213 232.856 80.8907 232.856 79.76C232.856 78.608 232.856 77.456 232.856 76.304C232.856 76.2827 232.856 76.272 232.856 76.272C232.856 76.272 232.846 76.272 232.824 76.272C232.206 76.272 231.576 76.272 230.936 76.272C230.318 76.272 229.699 76.272 229.08 76.272L233.624 66H246.136C246.136 67.088 246.136 68.176 246.136 69.264C246.136 70.352 246.136 71.44 246.136 72.528C246.136 74.4693 246.136 76.4107 246.136 78.352C246.136 80.2933 246.136 82.2347 246.136 84.176C246.136 86.1173 246.136 88.0587 246.136 90H232.856ZM264.686 90.96C262.339 90.96 260.227 90.7573 258.35 90.352C256.472 89.9467 254.83 89.36 253.422 88.592C252.014 87.824 250.84 86.9067 249.902 85.84C248.963 84.7733 248.259 83.5893 247.79 82.288C247.32 80.9653 247.086 79.5467 247.086 78.032C247.086 76.3253 247.406 74.6933 248.046 73.136C248.707 71.5787 249.731 70.192 251.118 68.976C252.526 67.76 254.339 66.8 256.558 66.096C258.798 65.392 261.507 65.04 264.686 65.04C266.798 65.04 268.696 65.2 270.382 65.52C272.088 65.84 273.592 66.2987 274.894 66.896C276.195 67.472 277.315 68.1653 278.254 68.976C279.192 69.7867 279.95 70.6827 280.526 71.664C281.123 72.624 281.56 73.648 281.838 74.736C282.136 75.8027 282.286 76.9013 282.286 78.032C282.286 79.2907 282.115 80.4853 281.774 81.616C281.454 82.7467 280.963 83.792 280.302 84.752C279.662 85.712 278.851 86.576 277.87 87.344C276.91 88.0907 275.779 88.7413 274.478 89.296C273.176 89.8293 271.704 90.2347 270.062 90.512C268.44 90.8107 266.648 90.96 264.686 90.96ZM264.622 80.592C265.368 80.592 265.998 80.5173 266.51 80.368C267.022 80.2187 267.438 80.016 267.758 79.76C268.078 79.504 268.312 79.2267 268.462 78.928C268.611 78.6293 268.686 78.3413 268.686 78.064C268.686 77.808 268.643 77.552 268.558 77.296C268.472 77.04 268.334 76.8053 268.142 76.592C267.971 76.3573 267.736 76.1547 267.438 75.984C267.139 75.792 266.766 75.6533 266.318 75.568C265.891 75.4613 265.39 75.408 264.814 75.408C264.067 75.408 263.427 75.4827 262.894 75.632C262.382 75.7813 261.955 75.984 261.614 76.24C261.294 76.4747 261.059 76.752 260.91 77.072C260.76 77.392 260.686 77.712 260.686 78.032C260.686 78.352 260.75 78.6613 260.878 78.96C261.006 79.2587 261.219 79.536 261.518 79.792C261.816 80.0267 262.222 80.2187 262.734 80.368C263.246 80.5173 263.875 80.592 264.622 80.592Z" fill="#FFDF2B"/>
</svg>
