<svg width="293" height="64" viewBox="0 0 293 64" fill="none" xmlns="http://www.w3.org/2000/svg">
<g filter="url(#filter0_d_10_2)">
<path d="M9.904 54V9.968H32.368C35.312 9.968 37.68 10.288 39.472 10.928C41.264 11.5253 42.608 12.4427 43.504 13.68C44.4427 14.8747 45.0613 16.3893 45.36 18.224C45.7013 20.016 45.872 22.0853 45.872 24.432C45.872 26.3093 45.744 28.08 45.488 29.744C45.2747 31.408 44.7627 32.9013 43.952 34.224C43.184 35.504 42.032 36.528 40.496 37.296L46.768 54H33.2L27.504 36.528L30.768 38.32C30.384 38.576 29.9787 38.7467 29.552 38.832C29.1253 38.8747 28.5707 38.896 27.888 38.896H23.088V54H9.904ZM23.088 29.744H27.44C28.6347 29.744 29.5733 29.7013 30.256 29.616C30.9387 29.488 31.4507 29.2533 31.792 28.912C32.176 28.5707 32.4107 28.0587 32.496 27.376C32.624 26.6933 32.688 25.776 32.688 24.624C32.688 23.5147 32.6453 22.6187 32.56 21.936C32.5173 21.2533 32.3253 20.7413 31.984 20.4C31.6853 20.0587 31.1733 19.824 30.448 19.696C29.7227 19.5253 28.72 19.44 27.44 19.44H23.088V29.744ZM52.654 54V9.968H84.206V19.632H65.774V26.992H81.198V36.528H65.774V44.336H84.206V54H52.654ZM109.391 54.512C106.02 54.512 103.204 54.2987 100.943 53.872C98.6817 53.4027 96.847 52.656 95.439 51.632C94.031 50.5653 92.9643 49.1787 92.239 47.472C91.5563 45.7227 91.087 43.5893 90.831 41.072C90.575 38.512 90.447 35.4827 90.447 31.984C90.447 28.4853 90.575 25.4773 90.831 22.96C91.087 20.4 91.5563 18.2667 92.239 16.56C92.9643 14.8107 94.031 13.424 95.439 12.4C96.847 11.3333 98.6817 10.5867 100.943 10.16C103.204 9.69066 106.02 9.456 109.391 9.456C110.714 9.456 112.079 9.52 113.487 9.648C114.938 9.73333 116.303 9.86133 117.583 10.032C118.906 10.2027 120.036 10.3947 120.975 10.608V19.696C119.439 19.568 118.138 19.4613 117.071 19.376C116.004 19.2907 115.108 19.2267 114.383 19.184C113.658 19.1413 113.039 19.12 112.527 19.12C110.82 19.12 109.412 19.2053 108.303 19.376C107.194 19.504 106.319 19.8027 105.679 20.272C105.039 20.7413 104.57 21.4453 104.271 22.384C104.015 23.3227 103.844 24.5813 103.759 26.16C103.716 27.696 103.695 29.6373 103.695 31.984C103.695 34.3307 103.716 36.2933 103.759 37.872C103.844 39.408 104.015 40.6453 104.271 41.584C104.57 42.5227 105.039 43.2267 105.679 43.696C106.319 44.1653 107.194 44.4853 108.303 44.656C109.412 44.784 110.82 44.848 112.527 44.848C113.85 44.848 115.322 44.8053 116.943 44.72C118.607 44.592 120.036 44.4427 121.231 44.272V53.488C120.292 53.6587 119.14 53.8293 117.775 54C116.452 54.1707 115.066 54.2987 113.615 54.384C112.164 54.4693 110.756 54.512 109.391 54.512ZM144.294 54.512C142.545 54.512 140.646 54.448 138.598 54.32C136.55 54.2347 134.566 54.128 132.646 54C130.726 53.8293 129.019 53.6373 127.526 53.424V44.144C129.105 44.272 130.662 44.4 132.198 44.528C133.777 44.6133 135.249 44.6987 136.614 44.784C138.022 44.8267 139.217 44.848 140.198 44.848C142.033 44.848 143.419 44.8053 144.358 44.72C145.339 44.592 146.022 44.3787 146.406 44.08C146.705 43.8667 146.897 43.632 146.982 43.376C147.11 43.0773 147.195 42.736 147.238 42.352C147.281 41.968 147.302 41.5413 147.302 41.072C147.302 40.3467 147.238 39.7707 147.11 39.344C146.982 38.9173 146.747 38.576 146.406 38.32C146.065 38.064 145.531 37.872 144.806 37.744C144.123 37.5733 143.185 37.424 141.99 37.296L133.798 36.272C132.262 36.0587 131.003 35.6107 130.022 34.928C129.083 34.2453 128.315 33.3493 127.718 32.24C127.163 31.088 126.779 29.7227 126.566 28.144C126.353 26.5227 126.246 24.752 126.246 22.832C126.246 19.9307 126.673 17.6053 127.526 15.856C128.422 14.064 129.638 12.72 131.174 11.824C132.753 10.8853 134.566 10.2667 136.614 9.968C138.705 9.62666 140.945 9.456 143.334 9.456C145.126 9.456 146.939 9.52 148.774 9.648C150.651 9.776 152.422 9.92533 154.086 10.096C155.75 10.2667 157.115 10.48 158.182 10.736V19.888C157.115 19.76 155.857 19.632 154.406 19.504C152.955 19.376 151.462 19.2907 149.926 19.248C148.39 19.1627 146.939 19.12 145.574 19.12C144.251 19.12 143.185 19.1627 142.374 19.248C141.606 19.3333 141.009 19.504 140.582 19.76C140.113 20.016 139.793 20.3787 139.622 20.848C139.494 21.2747 139.43 21.808 139.43 22.448C139.43 23.344 139.494 24.0267 139.622 24.496C139.75 24.9653 140.091 25.2853 140.646 25.456C141.201 25.6267 142.075 25.7973 143.27 25.968L150.95 26.864C152.059 26.992 153.105 27.2053 154.086 27.504C155.11 27.8027 156.027 28.272 156.838 28.912C157.691 29.552 158.438 30.4693 159.078 31.664C159.377 32.2187 159.611 32.9013 159.782 33.712C159.953 34.48 160.102 35.3973 160.23 36.464C160.358 37.5307 160.422 38.7467 160.422 40.112C160.422 42.7147 160.166 44.8907 159.654 46.64C159.142 48.3893 158.395 49.7973 157.414 50.864C156.433 51.888 155.259 52.6773 153.894 53.232C152.571 53.744 151.099 54.0853 149.478 54.256C147.857 54.4267 146.129 54.512 144.294 54.512ZM175.29 54V20.144H163.898V9.968H199.866V20.144H188.474V54H175.29ZM198.064 54L211.12 9.968H229.296L242.288 54H229.168L227.056 46.448H212.976L210.928 54H198.064ZM215.344 37.104H224.624L220.208 20.848H219.696L215.344 37.104ZM246.342 54V9.968H268.806C271.75 9.968 274.118 10.288 275.91 10.928C277.701 11.5253 279.046 12.4427 279.942 13.68C280.88 14.8747 281.499 16.3893 281.798 18.224C282.139 20.016 282.31 22.0853 282.31 24.432C282.31 26.3093 282.182 28.08 281.926 29.744C281.712 31.408 281.2 32.9013 280.39 34.224C279.622 35.504 278.47 36.528 276.934 37.296L283.206 54H269.638L263.942 36.528L267.206 38.32C266.822 38.576 266.416 38.7467 265.99 38.832C265.563 38.8747 265.008 38.896 264.326 38.896H259.526V54H246.342ZM259.526 29.744H263.878C265.072 29.744 266.011 29.7013 266.694 29.616C267.376 29.488 267.888 29.2533 268.23 28.912C268.614 28.5707 268.848 28.0587 268.934 27.376C269.062 26.6933 269.126 25.776 269.126 24.624C269.126 23.5147 269.083 22.6187 268.998 21.936C268.955 21.2533 268.763 20.7413 268.422 20.4C268.123 20.0587 267.611 19.824 266.886 19.696C266.16 19.5253 265.158 19.44 263.878 19.44H259.526V29.744Z" fill="white"/>
</g>
<defs>
<filter id="filter0_d_10_2" x="0.903992" y="0.455994" width="291.302" height="63.056" filterUnits="userSpaceOnUse" color-interpolation-filters="sRGB">
<feFlood flood-opacity="0" result="BackgroundImageFix"/>
<feColorMatrix in="SourceAlpha" type="matrix" values="0 0 0 0 0 0 0 0 0 0 0 0 0 0 0 0 0 0 127 0" result="hardAlpha"/>
<feOffset/>
<feGaussianBlur stdDeviation="4.5"/>
<feComposite in2="hardAlpha" operator="out"/>
<feColorMatrix type="matrix" values="0 0 0 0 0.14014 0 0 0 0 0.498636 0 0 0 0 0.677885 0 0 0 1 0"/>
<feBlend mode="normal" in2="BackgroundImageFix" result="effect1_dropShadow_10_2"/>
<feBlend mode="normal" in="SourceGraphic" in2="effect1_dropShadow_10_2" result="shape"/>
</filter>
</defs>
</svg>
